<?xml version="1.0" encoding="UTF-8"?><svg id="Layer_2" xmlns="http://www.w3.org/2000/svg" viewBox="0 0 997.05 879.1"><defs><style>.cls-1{fill:#fff;}</style></defs><g id="Layer_1-2"><g><path class="cls-1" d="M173.94,664.34s-2.04-.73-3.99-1.76c-2.09-1.1-75.38-39.16-109.11-84.95C2.18,498,6.74,405.52,32.05,222.56c3.26-23.6,7.7-47.48,18.81-68.55,31.35-59.44,104.89-80.39,170.91-92.94C390.02,29.09,561.37,13.78,732.62,14.24c29.62,.08,59.83,.72,87.85,10.34,41.18,14.13,74.12,46.81,95.9,84.51s33.45,80.34,42.41,122.95c16.68,79.29,24.74,160.39,24,241.41-.15,16.29-.9,33.44-9.48,47.29-9.25,14.94-23.08,22.26-29.02,25.36-24.85,12.95-49.59,11.03-54.41,10.76-79.76-4.45-693.06,110.08-706.99,109.28-4.71-.27-8.94-1.79-8.94-1.79Z"/><path d="M177.71,650.67c-.34-.13,1.68,.91-.63-.35-.11-.06-.22-.12-.33-.18-.54-.28-1.07-.57-1.61-.85-1.97-1.06-3.93-2.13-5.89-3.23-7.11-3.98-14.12-8.14-21.02-12.47-9.61-6.02-19.03-12.36-28.17-19.08-1.23-.9-2.45-1.81-3.66-2.72-.7-.53-1.4-1.06-2.1-1.59-.08-.06-1.8-1.39-.66-.51s-.58-.46-.66-.52c-.7-.55-1.4-1.1-2.09-1.66-1.4-1.11-2.78-2.24-4.16-3.38-4.84-3.99-9.56-8.13-14.12-12.43-4.64-4.38-9.12-8.95-13.34-13.74-.99-1.13-1.98-2.27-2.94-3.42-.45-.54-2.81-3.45-2.08-2.52s-1.41-1.88-1.75-2.35c-.76-1.04-1.52-2.1-2.27-3.15-5.12-7.24-9.83-14.76-14.08-22.54-2.16-3.96-4.2-7.99-6.1-12.08-.92-1.97-1.75-3.98-2.67-5.95-.67-1.43,.53,1.27,.52,1.24-.23-.58-.48-1.15-.71-1.72-.47-1.15-.93-2.31-1.38-3.47-3.25-8.38-5.99-16.96-8.24-25.66-2.35-9.08-4.18-18.29-5.58-27.57-.18-1.18-.33-2.36-.51-3.54-.25-1.63,.16,1.2,.16,1.22-.08-.68-.18-1.37-.26-2.05-.3-2.42-.57-4.85-.82-7.27-.53-5.17-.94-10.36-1.26-15.55-1.38-22.76-.92-45.6,.39-68.35,1.58-27.47,4.39-54.87,7.64-82.19,1.77-14.9,3.88-31.33,5.74-45.21,2.19-16.36,4.16-32.81,7.75-48.93,3.37-15.11,7.81-28.6,15.57-41.56,1.58-2.64,3.26-5.22,5.04-7.73,.38-.53,.76-1.06,1.15-1.59,.21-.29,1.85-2.46,.85-1.17-.9,1.17,.42-.52,.5-.61,.69-.83,1.37-1.68,2.07-2.5,3.91-4.61,8.14-8.94,12.63-12.98,2.25-2.03,4.57-3.97,6.93-5.86,1.26-1.01-.1,.06-.3,.22,.69-.53,1.39-1.05,2.09-1.56,1.4-1.03,2.82-2.04,4.26-3.03,5.08-3.49,10.34-6.71,15.74-9.68,5.69-3.13,11.52-5.98,17.45-8.61,.6-.27,4.49-1.91,2.23-.98,1.47-.61,2.94-1.2,4.42-1.79,3.18-1.26,6.39-2.46,9.62-3.6,24.78-8.82,50.52-14.59,76.33-19.48,34.75-6.58,69.63-12.45,104.62-17.61,69.13-10.21,139.07-17.56,209.02-22.24,70.03-4.68,140.63-7.59,210.82-5.91,30.9,.74,60.92,4.92,86.69,19.64,12.94,7.39,21.49,14.07,31.95,24.28,4.92,4.8,9.59,9.86,13.99,15.14,2.59,3.1,3.29,3.98,5.09,6.4,2.06,2.76,4.05,5.57,5.98,8.42,17.89,26.48,29.17,55.05,37.94,85.6,9.37,32.64,15.87,66.18,21.28,99.67,5.51,34.11,9.31,68.46,11.55,103.13,1.13,17.59,1.86,35.21,2.16,52.83,.28,16.4,1.03,33.21-.83,49.54-.19,1.67-.05,.51,0,.16-.15,1.04-.33,2.08-.52,3.11-.34,1.8-.73,3.58-1.2,5.35-1.06,4.04-1.79,6.11-3.3,8.94-3.23,6.05-6.08,9.33-11.65,14.17-.65,.56-1.32,1.11-1.98,1.65,.16-.13,1.7-1.27,.43-.34-1.08,.79-2.17,1.56-3.29,2.3-2,1.32-4.06,2.55-6.17,3.7-5.45,3-10.55,5.17-16.58,6.93-3.5,1.02-7.06,1.85-10.65,2.49-.72,.13-5.15,.72-2.51,.42-1.69,.19-3.39,.36-5.09,.48-4.31,.31-8.63,.35-12.95,.15-2.98-.14-5.94-.28-8.92-.25-18.44,.19-36.93,2.46-55.22,4.61-29.43,3.45-58.79,7.59-88.11,11.91-34.92,5.14-69.8,10.62-104.65,16.24-37.95,6.12-75.88,12.43-113.79,18.83-37.63,6.36-75.25,12.81-112.86,19.32-33.46,5.79-66.92,11.62-100.38,17.45-25.95,4.52-51.89,9.05-77.86,13.48-14.95,2.55-29.9,5.16-44.91,7.36-4.07,.6,3.68-.43,1-.13-.64,.07-1.29,.14-1.92,.23-.43,.06-.88,.1-1.31,.1-.12,0-.24,0-.37,0,.72,0-1.87-.34-2.49-.49-.91-.23-1.82-.49-2.71-.79-7.02-2.42-15.82,2.76-17.44,9.9-1.8,7.89,2.39,14.85,9.9,17.44,13.19,4.54,27.32,.48,40.59-1.7,21.48-3.53,42.92-7.26,64.37-10.98,31.05-5.39,62.1-10.81,93.15-16.21,36.89-6.41,73.78-12.8,110.68-19.11,38.97-6.66,77.96-13.25,116.97-19.69,37.31-6.16,74.64-12.18,112.01-17.94,16.8-2.59,33.6-5.12,50.42-7.55,7.88-1.14,15.77-2.27,23.66-3.36,3.69-.51,7.37-1.02,11.06-1.52,.61-.08,3.83-.52,1.1-.15s.52-.07,1.07-.14c1.81-.24,3.63-.48,5.45-.72,22.61-2.97,45.3-5.86,68.06-7.39,6.68-.45,13.42-.84,20.12-.56,23.74,.98,46.96-3.32,67.69-15.46,12.2-7.14,23.26-17.22,30.16-29.67,8.18-14.77,9.87-31.86,10.18-48.45,.66-35.92-.81-71.96-3.81-107.76-3.04-36.39-7.81-72.66-14.26-108.6-6.06-33.77-13.13-67.63-24.14-100.17-19.63-58.02-54.94-115.39-112.18-142.48C811.3,3.62,777.2,.5,743.09,.12c-35.75-.4-71.53,.21-107.26,1.36-72.56,2.34-145.03,7.54-217.17,15.67-70.73,7.98-141.5,18.16-211.27,32.32-51.71,10.49-107.45,26.6-145.36,65.51-22.01,22.59-34.22,51.22-40.12,81.9-6.31,32.83-9.74,66.47-13.6,99.66-5.83,50.11-10.83,101.1-6.93,151.55,3.07,39.7,12.34,78.62,32.11,113.47,11.32,19.93,25.55,37.95,42.5,53.38,18.44,16.78,38.96,31.39,60.13,44.5,10.82,6.7,22.04,14.07,34.04,18.55,6.96,2.6,15.85-2.89,17.44-9.9,1.83-8.05-2.45-14.66-9.9-17.44Z"/></g><g><path class="cls-1" d="M508.61,863.53c-68.36,3.06-144.9,5.42-214.29-43.31-42.51-29.86-64.81-66.61-101.29-142.1-53.35-110.42-96.76-229.96-91.14-352.47,1.81-39.37,9.27-79.92,31.94-112.16,22.67-32.24,63.43-54.1,101.81-45.18,21.87,5.09,40.37,19.09,59.34,31.12,49.25,31.22,107.91,50.94,165.79,43.86,59.46-7.27,111.63-41.35,166.62-65.1,54.99-23.75,122.5-36.2,172.02-2.5,41.01,27.91,57.93,79.47,68.55,127.93,8.65,39.47,31.31,118.42,23.07,234.3-6.47,90.92-9.7,136.38-33.95,178.31-78.18,135.21-278.1,144.15-348.48,147.29Z"/><path d="M508.61,849.35c-21.75,.97-43.53,1.81-65.31,1.15-11.32-.34-22.63-1.09-33.88-2.41-1.26-.15-2.52-.31-3.78-.46-2.24-.27,2.22,.34-.01,0-.63-.1-1.26-.18-1.89-.27-2.95-.43-5.89-.91-8.83-1.43-5.71-1.01-11.38-2.2-17.01-3.56-11.29-2.74-22.41-6.24-33.2-10.56-.62-.25-1.24-.51-1.87-.76-2.14-.83,1.77,.79-.34-.14-1.24-.55-2.48-1.08-3.72-1.64-2.91-1.32-5.79-2.69-8.65-4.13-5.64-2.84-11.15-5.91-16.53-9.21-5.05-3.09-9.98-6.38-14.78-9.86-1.28-.93-4.03-2.26-4.84-3.6-.03-.04,2.27,1.8,1.06,.81-.35-.29-.72-.57-1.08-.85-.83-.66-1.66-1.33-2.48-2-6.26-5.13-12.2-10.65-17.77-16.52-2.82-2.96-5.54-6.01-8.17-9.14-1.29-1.53-2.56-3.09-3.81-4.65-.32-.4-2.25-2.79-.92-1.15s-1.02-1.35-1.47-1.96c-5.3-7.1-10.22-14.48-14.87-22.01-11.59-18.75-21.66-38.41-31.42-58.16-11.52-23.31-22.59-46.84-32.93-70.7-1.26-2.9-2.5-5.8-3.73-8.71,.74,1.74-.63-1.51-.83-1.99-.75-1.79-1.5-3.59-2.24-5.39-2.41-5.84-4.77-11.7-7.08-17.59-4.79-12.21-9.34-24.5-13.63-36.89-8.45-24.44-15.84-49.25-21.78-74.42-2.98-12.63-5.6-25.35-7.8-38.14-1.1-6.38-2.08-12.78-2.97-19.19,.3,2.18-.17-1.3-.25-1.93-.21-1.66-.42-3.33-.61-4.99-.39-3.33-.76-6.67-1.09-10-2.52-25.42-3.24-51.05-1.73-76.55,.36-6,.85-12,1.52-17.97,.15-1.33,.31-2.66,.47-3.99,.08-.66,.17-1.33,.25-1.99-.08,.6-.38,2.63,.05-.21s.88-5.73,1.4-8.58c2.11-11.77,5.06-23.4,9.14-34.64,.53-1.45,1.07-2.89,1.63-4.32,.27-.69,1.49-3.61,.58-1.49,1.22-2.82,2.51-5.61,3.89-8.36,2.66-5.31,5.64-10.46,8.93-15.4,.72-1.09,1.46-2.16,2.22-3.22,.41-.58,2.83-3.76,1.01-1.45,1.74-2.2,3.55-4.35,5.43-6.43,3.52-3.87,7.3-7.51,11.3-10.88,.62-.52,1.24-1.03,1.86-1.54,.16-.13,1.74-1.38,.46-.39-1.11,.87,1.5-1.1,1.95-1.42,2.28-1.64,4.63-3.2,7.02-4.66,2.22-1.36,4.48-2.64,6.79-3.84,1.06-.55,2.13-1.08,3.21-1.6,.75-.36,4.83-2.07,2.06-.98,4.96-1.95,9.99-3.64,15.19-4.82,1.15-.26,2.29-.5,3.45-.71s4.38-.66,1.44-.31c2.71-.33,5.43-.55,8.16-.62,2.34-.06,4.69-.03,7.03,.12,1.37,.08,2.73,.25,4.1,.36,1.66,.13-.69-.09-.85-.12,.78,.14,1.56,.25,2.34,.39,5.81,1.06,11.37,2.88,16.86,5.01,1.53,.59-.06-.02-.31-.13,.81,.37,1.63,.73,2.43,1.11,1.21,.57,2.42,1.16,3.61,1.76,2.8,1.42,5.55,2.93,8.27,4.5,5.28,3.06,10.41,6.35,15.52,9.68,21.37,13.93,43.09,26.36,66.74,36.03,47.31,19.35,99.27,25.33,149.13,12.82,48.45-12.16,91.76-38.3,137-58.57,2.68-1.2,5.37-2.37,8.06-3.54-2.23,.97,.42-.17,1.24-.51,1.55-.64,3.11-1.27,4.68-1.88,5.32-2.09,10.7-4.05,16.13-5.86,10.71-3.57,21.63-6.55,32.71-8.78,2.7-.54,5.41-1.04,8.13-1.48,1.46-.24,2.92-.46,4.38-.68,.21-.03,2.3-.3,.62-.09s.96-.1,1.25-.14c5.6-.65,11.22-1.08,16.85-1.24s11.11-.06,16.65,.34c2.64,.19,5.27,.48,7.9,.78-2.56-.29-.05,0,1.05,.18,1.6,.26,3.19,.54,4.77,.85,5.14,1.01,10.21,2.33,15.18,3.97,2.49,.82,4.92,1.77,7.37,2.71,1.52,.58-.41-.17-.6-.26,.74,.34,1.48,.65,2.21,.99,1.29,.6,2.57,1.22,3.83,1.86,4.91,2.5,9.64,5.36,14.13,8.55,.96,.68,1.9,1.38,2.83,2.09-2.45-1.84,.67,.59,1.23,1.06,2.08,1.73,4.09,3.54,6.04,5.42,3.74,3.6,7.25,7.44,10.53,11.47,.68,.83,2.08,2.75,.63,.77,.68,.93,1.38,1.85,2.06,2.79,1.58,2.2,3.1,4.44,4.56,6.72,2.84,4.44,5.46,9.01,7.88,13.69,1.18,2.27,2.31,4.57,3.39,6.88,.59,1.25,1.16,2.51,1.73,3.78,.39,.87,1.75,4.07,.69,1.53,12.81,30.89,19.31,64.16,26.47,96.73,3.5,15.91,6.58,31.91,9.07,48,.35,2.24,.68,4.48,1,6.72,.15,1.06,.3,2.11,.45,3.17,.07,.53,.15,1.07,.22,1.6,.38,2.77-.23-1.83,0,0,.61,4.83,1.21,9.65,1.74,14.48,1.18,10.81,2.09,21.65,2.73,32.51,2.94,49.63-.73,99.22-5.14,148.66-.88,9.82-1.86,19.62-3.07,29.4-.15,1.19-.3,2.39-.46,3.58-.36,2.79,.36-2.51-.04,.24-.33,2.28-.65,4.56-1,6.83-.65,4.19-1.36,8.36-2.16,12.52-1.45,7.56-3.17,15.07-5.3,22.46-1.02,3.55-2.14,7.08-3.36,10.57-.58,1.65-1.18,3.29-1.8,4.93-.33,.87-.68,1.75-1.02,2.61-.74,1.84-.99,2.14,.06-.06-7.03,14.78-14.91,28.37-24.62,41.59-.94,1.28,.69-.89,.71-.91-.34,.53-.82,1.05-1.22,1.55-.61,.77-1.23,1.54-1.86,2.3-1.45,1.77-2.93,3.53-4.43,5.26-2.88,3.31-5.86,6.54-8.93,9.68-6.08,6.23-12.52,12.11-19.24,17.65-1.49,1.22-2.99,2.43-4.5,3.62-2.78,2.2,1.47-1.09-.56,.43-.9,.67-1.79,1.35-2.69,2.02-3.48,2.57-7.01,5.05-10.61,7.46-7.18,4.8-14.57,9.26-22.13,13.41-7.41,4.07-14.98,7.84-22.67,11.34-1.88,.86-3.77,1.7-5.67,2.52-.61,.26-3.73,1.63-1.81,.79s-1.27,.52-1.82,.75c-3.96,1.63-7.94,3.19-11.95,4.68-30.75,11.49-62.78,19.32-95.12,24.75-3.65,.61-7.3,1.19-10.95,1.74-1.8,.27-3.59,.53-5.39,.79-.96,.14-1.92,.27-2.88,.4-.41,.06-.82,.11-1.23,.17-1.84,.26,3.17-.42,1.33-.18-7.08,.92-14.17,1.78-21.28,2.52-12.46,1.3-24.96,2.3-37.47,3.08-9.51,.59-19.02,1.04-28.54,1.47-7.4,.33-14.53,6.29-14.18,14.18,.33,7.4,6.24,14.53,14.18,14.18,23.07-1.03,46.11-2.39,69.07-4.88,32.23-3.49,64.34-8.72,95.71-16.94,34.39-9.01,68.22-21.61,99.17-39.23s61.03-42.7,83.24-72.68c19.78-26.69,31.81-57.11,37.71-89.68,3.62-20.01,5.72-40.31,7.47-60.56,2.2-25.37,4.31-50.84,5.38-76.28,1.96-46.46-.98-92.93-8.36-138.83-4.7-29.22-11.48-58.07-18.21-86.88-9.96-42.69-25.67-88.23-59.73-117.87-17.85-15.53-39.56-26.05-62.87-30.23-24.32-4.36-48.89-3.04-73.06,1.67-48.85,9.52-92.24,34.4-136.81,55.31-5.6,2.63-11.23,5.2-16.91,7.66-.84,.36-1.68,.73-2.52,1.09-.06,.03-2.14,.91-.83,.36s-.77,.32-.83,.34c-.84,.35-1.69,.7-2.53,1.04-2.95,1.2-5.92,2.37-8.9,3.5-11.65,4.41-23.55,8.22-35.69,11.04-5.98,1.39-12,2.49-18.07,3.41,.27-.04,2.06-.25,.38-.05-.91,.11-1.82,.22-2.73,.32-1.37,.15-2.73,.29-4.1,.41-3.41,.31-6.84,.52-10.26,.65-6.15,.23-12.31,.17-18.46-.16-2.96-.16-5.91-.37-8.86-.65-1.59-.15-3.18-.32-4.76-.5-.68-.08-1.36-.17-2.04-.25,1.52,.18,.78,.12-.3-.04-12.47-1.84-24.77-4.63-36.82-8.32-5.95-1.82-11.83-3.85-17.64-6.06-1.51-.58-3.01-1.16-4.51-1.77-.58-.23-4.56-1.87-2.37-.95-2.98-1.26-5.93-2.58-8.86-3.94-11.51-5.34-22.69-11.39-33.5-18.03s-20.78-13.72-31.51-20.03-22.85-12.17-35.31-15.07c-12.41-2.89-24.78-2.97-37.32-1.12-23.23,3.43-44.96,15.63-62.06,31.43-37.46,34.63-49.38,87.72-52.11,136.71-2.97,53.16,3.55,106.74,15.87,158.43,12.49,52.39,31.22,103.04,52.68,152.36,10.65,24.46,22.05,48.59,33.94,72.47,9.73,19.56,19.82,39.02,31.5,57.5,9.77,15.47,20.8,30.36,33.6,43.47,13.8,14.12,29.83,26.3,46.8,36.34,42.95,25.41,92.21,35.19,141.61,36.63,21.57,.63,43.14-.2,64.69-1.17,7.4-.33,14.53-6.29,14.18-14.18-.33-7.4-6.24-14.53-14.18-14.18Z"/></g><g><path class="cls-1" d="M194.59,454.43c7.26-36.02,96.23-44.37,165.95-50.91,50.17-4.71,68.99,.53,88.2,8.72,27.45,11.69,50.33,39.17,47.45,68.87-2.2,22.77-19.03,42.19-39.27,52.83-20.24,10.64-43.56,13.78-66.39,15.05,0,0-98.38,5.89-163.22-33.78-3.53-2.16-8.57-5.54-13.72-11-13.12-13.9-21.82-35.83-19-49.79Z"/><path d="M208.26,458.2c.33-1.58,.8-3.11,1.42-4.59l-1.43,3.39c.93-2.16,2.14-4.16,3.57-6.03l-2.22,2.87c2.05-2.63,4.49-4.92,7.13-6.96l-2.87,2.22c5.17-3.95,10.99-6.95,16.97-9.49l-3.39,1.43c17.7-7.44,36.88-11.27,55.74-14.38,6.1-1,12.22-1.9,18.35-2.73l-3.77,.51c15.76-2.11,31.58-3.76,47.41-5.28,16.71-1.61,33.45-3.34,50.26-3.23,7.11,.05,14.23,.42,21.28,1.36l-3.77-.51c10.87,1.47,21.24,4.58,31.33,8.84l-3.39-1.43c6.98,2.95,13.54,6.77,19.55,11.39l-2.87-2.22c5.55,4.32,10.57,9.26,14.9,14.81l-2.22-2.87c3.76,4.87,6.93,10.16,9.34,15.83l-1.43-3.39c2,4.8,3.41,9.79,4.12,14.94l-.51-3.77c.6,4.65,.62,9.33,.03,13.98l.51-3.77c-.68,5.02-2.05,9.9-4.01,14.57l1.43-3.39c-2.24,5.23-5.18,10.1-8.65,14.6l2.22-2.87c-4.11,5.26-8.9,9.94-14.18,14.03l2.87-2.22c-6.13,4.7-12.85,8.47-19.96,11.49l3.39-1.43c-11.71,4.91-24.14,7.72-36.69,9.42l3.77-.51c-9.85,1.3-19.79,2.06-29.73,2.24-11.21,.2-22.43-.13-33.61-.89-8.89-.6-17.76-1.48-26.59-2.67l3.77,.51c-18.95-2.56-37.77-6.5-55.92-12.56-5.32-1.78-10.57-3.74-15.73-5.91l3.39,1.43c-10.49-4.43-21.18-9.56-30.24-16.55l2.87,2.22c-4.32-3.39-8.15-7.3-11.52-11.64l2.22,2.87c-4.13-5.4-7.55-11.32-10.21-17.58l1.43,3.39c-2.15-5.16-3.8-10.54-4.55-16.09l.51,3.77c-.39-3.07-.49-6.17-.1-9.25l-.51,3.77c.08-.56,.17-1.12,.28-1.67,.74-3.79,.57-7.51-1.43-10.93-1.72-2.94-5.09-5.75-8.47-6.52-3.63-.83-7.7-.65-10.93,1.43-2.97,1.91-5.82,4.88-6.52,8.47-3.18,16.36,2.3,33.36,10.57,47.44,4.31,7.34,9.71,14.38,16.1,20.04,5.89,5.21,12.44,9.46,19.32,13.22,24.62,13.46,52.05,21.46,79.61,26.14,22.1,3.75,44.52,5.78,66.93,5.97,16.32,.14,32.57-1.01,48.69-3.66,8.36-1.37,16.63-3.32,24.62-6.14,8.46-2.99,16.84-6.69,24.36-11.63,6.81-4.47,13.3-9.72,18.76-15.78s10.26-12.67,13.63-20c1.87-4.07,3.6-8.25,4.76-12.58s1.89-9.24,2.22-13.89c.56-7.81-.52-15.99-2.77-23.47-4.59-15.24-13.99-29.09-25.91-39.56-6.06-5.33-12.71-10.14-19.87-13.89-5.38-2.82-11.07-5.12-16.75-7.24-9.24-3.45-18.69-5.4-28.45-6.68-12.45-1.64-25.06-1.6-37.58-.96-15.22,.78-30.41,2.44-45.57,3.97-29.04,2.95-58.37,6.17-86.77,13.16-12.14,2.99-24.11,6.85-35.37,12.32-9.82,4.78-18.65,11.39-24.95,20.39-2.65,3.78-4.63,8.32-5.57,12.85-.77,3.75-.55,7.55,1.43,10.93,1.72,2.94,5.09,5.75,8.47,6.52,3.63,.83,7.7,.65,10.93-1.43,2.99-1.93,5.77-4.87,6.52-8.47Z"/></g><g><path class="cls-1" d="M736.61,391.2c-33.17-7.94-60.28,1.53-74.02,6.33-18.95,6.62-36.02,12.64-47.95,30.32-9.44,13.99-11.73,31.68-10.91,48.54,.43,8.83,1.9,18.21,7.82,24.77,4.05,4.48,9.72,7.1,15.34,9.3,37.77,14.71,81.11,14.56,118.77-.43,17.55-6.98,33.01-14.04,42.98-31.44,1.42-2.47,14.88-26.82,4.52-51.1-10.81-25.33-39.72-32.25-56.56-36.28Z"/><path d="M740.38,377.53c-11.35-2.69-23.19-3.97-34.85-3.45-9.78,.44-19.6,1.93-29.09,4.32-6.22,1.57-12.29,3.6-18.34,5.72-9.29,3.25-18.65,6.58-27.38,11.16s-16.43,10.4-22.52,17.76c-3.73,4.5-7.18,9.23-9.73,14.5-2.62,5.39-4.78,11.04-6.17,16.88-2.54,10.65-3.31,21.84-2.7,32.76,.7,12.54,3.44,25.29,12.5,34.6,4.14,4.26,9.35,7.42,14.78,9.75s11.39,4.62,17.28,6.42c10.99,3.36,22.29,5.4,33.71,6.64,10.22,1.11,20.54,1.26,30.79,.46,11.49-.9,22.98-2.73,34.1-5.77,10.33-2.82,20.3-6.82,30.07-11.17,8.7-3.88,16.76-8.7,23.97-14.97,4.1-3.57,7.53-7.74,10.72-12.14,1.6-2.2,3.05-4.5,4.3-6.92,3.34-6.48,6.03-13.5,7.56-20.65,1.18-5.53,1.94-11.28,1.89-16.94-.03-3.58-.51-7.12-1.02-10.66-.37-2.55-.93-5.08-1.69-7.54-3.13-10.08-8.74-19.4-16.41-26.68-12.06-11.43-27.75-17.88-43.6-22.07-2.7-.71-5.41-1.37-8.12-2.02-3.65-.87-7.64-.49-10.93,1.43-2.94,1.72-5.75,5.09-6.52,8.47-.83,3.63-.65,7.7,1.43,10.93,1.96,3.05,4.85,5.65,8.47,6.52,8.51,2.04,16.99,4.25,25.08,7.64l-3.39-1.43c5.77,2.44,11.29,5.44,16.26,9.26l-2.87-2.22c3.41,2.66,6.5,5.68,9.16,9.08l-2.22-2.87c2.44,3.17,4.47,6.62,6.05,10.3l-1.43-3.39c1.69,4.02,2.83,8.22,3.43,12.54l-.51-3.77c.64,4.96,.57,9.97-.1,14.93l.51-3.77c-.85,6.03-2.52,11.92-4.88,17.53l1.43-3.39c-1.91,4.5-4.3,8.68-7.28,12.58l2.22-2.87c-2.96,3.82-6.38,7.21-10.19,10.19l2.87-2.22c-6.64,5.12-14.19,8.83-21.88,12.08l3.39-1.43c-14.3,6.03-29.03,10.46-44.43,12.56l3.77-.51c-14.57,1.95-29.35,1.96-43.92,.04l3.77,.51c-13.58-1.83-27.06-5.26-39.71-10.57l3.39,1.43c-3.29-1.4-6.48-3.02-9.35-5.18l2.87,2.22c-1.61-1.25-3.05-2.64-4.33-4.24l2.22,2.87c-1.44-1.86-2.58-3.89-3.5-6.05l1.43,3.39c-1.41-3.44-2.22-7.06-2.72-10.74l.51,3.77c-1.15-8.88-1.02-18.07,.16-26.94l-.51,3.77c.88-6.34,2.41-12.58,4.87-18.5l-1.43,3.39c1.98-4.7,4.54-9.08,7.65-13.13l-2.22,2.87c3.08-3.95,6.63-7.48,10.59-10.55l-2.87,2.22c5.64-4.32,11.95-7.6,18.48-10.35l-3.39,1.43c6.43-2.69,13.03-4.97,19.61-7.23,5.62-1.93,11.31-3.67,17.1-5.01,4.07-.95,8.19-1.71,12.33-2.26l-3.77,.51c10.03-1.32,20.19-1.39,30.23-.08l-3.77-.51c3.79,.51,7.56,1.21,11.28,2.09s7.64,.5,10.93-1.43c2.94-1.72,5.75-5.09,6.52-8.47,.83-3.63,.65-7.7-1.43-10.93-1.96-3.04-4.85-5.66-8.47-6.52Z"/></g><g><path d="M714.19,403.44c-2.08,.19-13.27,1.41-21.19,10.45-8.01,9.13-7.67,20.5-7.37,30.75,.18,5.98,.57,9.83,2.75,14.4,3.44,7.23,11.15,11.66,19,13.25,13.29,2.7,30.48-1.92,39.07-16.26,6.23-10.4,7.2-24.54,.04-36.21-6.95-11.33-19.82-17.51-32.29-16.38Z"/><path d="M714.19,389.26c-7.24,.67-13.97,2.48-20.4,6.03-9.93,5.48-17.31,14.99-20.4,25.87-1.37,4.85-1.9,10.04-2.03,15.07-.11,4-.02,8.05,.25,12.05,.2,3.03,.55,6.1,1.2,9.07s1.81,5.51,3,8.15c1.26,2.82,3.13,5.17,5.08,7.57s4.2,3.99,6.53,5.77c1.53,1.16,3.14,2.18,4.87,3.02,2.7,1.32,5.54,2.53,8.43,3.39,4.3,1.27,8.93,1.87,13.41,1.95,9.02,.16,18.01-2.14,25.98-6.31,4.07-2.12,7.89-5.01,11.15-8.22,2.08-2.05,3.85-4.41,5.59-6.75,1.14-1.54,2.15-3.19,3.02-4.9,2.25-4.44,4.12-9.23,4.87-14.17,.49-3.19,.96-6.4,.91-9.63s-.49-6.25-1.02-9.3c-.36-2.06-.91-4.09-1.64-6.05-1.13-3.02-2.39-6.06-4.05-8.84-2.53-4.25-5.78-8.33-9.57-11.53-2.28-1.93-4.67-3.8-7.23-5.36s-5.35-2.71-8.13-3.85c-4.53-1.85-9.32-2.65-14.18-3.05-1.88-.15-3.76-.14-5.64,.02-1.95-.07-3.77,.33-5.46,1.22-1.76,.57-3.28,1.55-4.56,2.93-2.46,2.46-4.31,6.49-4.15,10.03s1.37,7.47,4.15,10.03c2.64,2.42,6.32,4.47,10.03,4.15,2.43-.21,4.85-.15,7.26,.15l-3.77-.51c3.02,.41,5.96,1.21,8.78,2.37l-3.39-1.43c2.84,1.2,5.5,2.75,7.95,4.62l-2.87-2.22c2.28,1.78,4.32,3.81,6.11,6.08l-2.22-2.87c1.81,2.35,3.32,4.9,4.49,7.63l-1.43-3.39c1.15,2.76,1.94,5.62,2.36,8.57l-.51-3.77c.42,3.14,.42,6.29,.03,9.43l.51-3.77c-.44,3.21-1.27,6.32-2.51,9.31l1.43-3.39c-1.18,2.76-2.67,5.35-4.5,7.73l2.22-2.87c-1.74,2.21-3.72,4.19-5.93,5.92l2.87-2.22c-2.52,1.93-5.26,3.5-8.18,4.73l3.39-1.43c-3.17,1.3-6.47,2.18-9.86,2.66l3.77-.51c-3.47,.46-6.97,.48-10.44,.04l3.77,.51c-3.03-.42-5.98-1.2-8.8-2.38l3.39,1.43c-2.28-.98-4.43-2.21-6.4-3.72l2.87,2.22c-1.53-1.21-2.91-2.58-4.11-4.13l2.22,2.87c-1.04-1.39-1.87-2.88-2.57-4.47l1.43,3.39c-.93-2.21-1.52-4.5-1.84-6.87l.51,3.77c-.44-3.49-.48-7.04-.54-10.56s.02-6.82,.45-10.21l-.51,3.77c.41-3.05,1.13-6.04,2.3-8.89l-1.43,3.39c.95-2.24,2.16-4.32,3.64-6.25l-2.22,2.87c1.5-1.91,3.21-3.6,5.12-5.1l-2.87,2.22c2.13-1.63,4.44-2.96,6.9-4.03l-3.39,1.43c2.9-1.22,5.94-2.08,9.06-2.5l-3.77,.51c.4-.05,.8-.1,1.2-.14,1.95,.07,3.77-.33,5.46-1.22,1.76-.57,3.28-1.55,4.56-2.93,2.46-2.46,4.31-6.49,4.15-10.03s-1.37-7.47-4.15-10.03c-2.62-2.41-6.33-4.49-10.03-4.15Z"/></g><g><path d="M410.22,428.92c-12.57-11.48-32.6-13-47.75-5.74-17.53,8.39-22.88,25.78-23.81,30.07-.74,3.41-.97,7.07,.28,10.33,1.18,3.05,3.55,5.49,6.12,7.51,12.81,10.08,30.34,11.2,46.64,11.01,7.27-.08,15.08-.52,20.85-4.94,8.94-6.85,10.27-19.93,8.64-28.84-1.88-10.28-8.21-16.87-10.98-19.4Z"/><path d="M420.25,418.89c-3.89-3.52-8.26-6.69-13.09-8.8-2.97-1.3-5.93-2.57-9.06-3.43s-6.31-1.26-9.51-1.67c-4.84-.62-9.55-.4-14.37,.24-2.64,.35-5.25,.74-7.83,1.43-3.14,.84-6.1,2.09-9.09,3.37-15.43,6.59-26.75,21.09-31.63,36.9-.23,.73-.43,1.47-.61,2.21-.19,.82-.34,1.65-.46,2.48-.36,2.38-.79,4.84-.72,7.27,.24,8.16,3.73,15.77,9.9,21.16,8.56,7.49,19.16,12.2,30.32,14.19,10.23,1.82,20.7,2.34,31.07,1.94,3.52-.14,7.02-.56,10.49-1.13,2.25-.37,4.43-.97,6.54-1.84,1.97-.81,4.02-1.58,5.85-2.7s3.66-2.57,5.34-4.01c2.33-1.99,4.25-4.55,5.94-7.07s2.82-5.37,3.92-8.16c.72-1.83,1.24-3.73,1.6-5.66,.88-4.74,1.4-9.6,.92-14.41-.31-3.11-.69-6.3-1.52-9.34s-2.18-6.24-3.6-9.17c-2.02-4.16-4.92-7.99-8.01-11.4-.77-.84-1.57-1.65-2.41-2.42-2.75-2.53-6.23-4.15-10.03-4.15-3.48,0-7.63,1.54-10.03,4.15s-4.32,6.25-4.15,10.03,1.37,7.47,4.15,10.03c1.57,1.44,3,3,4.3,4.68l-2.22-2.87c1.85,2.41,3.39,5.01,4.59,7.79l-1.43-3.39c1.16,2.78,1.95,5.66,2.35,8.64l-.51-3.77c.43,3.38,.43,6.8-.01,10.18l.51-3.77c-.38,2.67-1.03,5.28-2.05,7.78l1.43-3.39c-.83,1.98-1.88,3.83-3.19,5.53l2.22-2.87c-1.08,1.36-2.29,2.56-3.65,3.63l2.87-2.22c-1.28,.96-2.65,1.75-4.12,2.4l3.39-1.43c-2.48,1.05-5.09,1.65-7.75,2.02l3.77-.51c-4.84,.62-9.76,.59-14.63,.52s-9.76-.32-14.6-.96l3.77,.51c-5.67-.77-11.25-2.07-16.54-4.28l3.39,1.43c-3.4-1.46-6.6-3.28-9.54-5.53l2.87,2.22c-1.62-1.27-3.13-2.64-4.42-4.25l2.22,2.87c-.74-.98-1.37-2.01-1.87-3.13l1.43,3.39c-.44-1.08-.72-2.17-.9-3.32l.51,3.77c-.21-1.75-.16-3.48,.07-5.23l-.51,3.77c.46-3.12,1.43-6.12,2.65-9.02l-1.43,3.39c1.65-3.87,3.77-7.53,6.34-10.86l-2.22,2.87c2.24-2.86,4.79-5.44,7.65-7.68l-2.87,2.22c2.94-2.26,6.13-4.11,9.54-5.55l-3.39,1.43c3.74-1.54,7.64-2.57,11.64-3.12l-3.77,.51c4.15-.53,8.34-.54,12.49,0l-3.77-.51c3.75,.52,7.41,1.49,10.91,2.95l-3.39-1.43c3.02,1.29,5.86,2.92,8.48,4.91l-2.87-2.22c.77,.6,1.52,1.23,2.24,1.88,2.79,2.52,6.2,4.15,10.03,4.15,3.48,0,7.63-1.54,10.03-4.15s4.32-6.25,4.15-10.03-1.36-7.5-4.15-10.03Z"/></g><g><path class="cls-1" d="M556.34,525.62c16.12,17.08,19.1,43.27,34.4,61.09,9.37,10.92,22.62,17.79,32.78,27.98s16.96,26.58,9.44,38.85c-5.17,8.44-15.4,12.16-25.03,14.44-36.41,8.6-75.67,4.66-109.64-11.02"/><path d="M546.31,535.65c1.3,1.38,2.52,2.83,3.68,4.32l-2.22-2.87c7.36,9.65,11.68,21.1,16.49,32.13,5.32,12.18,11.81,23.77,21.67,32.9,6.22,5.76,13.22,10.62,19.93,15.79l-2.87-2.22c5.23,4.05,10.39,8.31,14.47,13.55l-2.22-2.87c2.41,3.15,4.44,6.56,5.98,10.21l-1.43-3.39c1.13,2.76,1.97,5.61,2.4,8.56l-.51-3.77c.32,2.38,.36,4.76,.05,7.13l.51-3.77c-.27,1.89-.76,3.71-1.48,5.48l1.43-3.39c-.72,1.7-1.64,3.27-2.74,4.75l2.22-2.87c-1.34,1.73-2.89,3.25-4.62,4.59l2.87-2.22c-2.47,1.87-5.18,3.33-8.03,4.54l3.39-1.43c-8.58,3.57-18.05,5.21-27.21,6.45l3.77-.51c-15.05,2-30.32,1.96-45.37-.04l3.77,.51c-14.9-2.02-29.49-5.96-43.35-11.8l3.39,1.43c-1.63-.69-3.24-1.4-4.85-2.14-1.63-1.04-3.38-1.6-5.27-1.68-1.88-.42-3.77-.34-5.65,.25-3.29,.91-6.85,3.45-8.47,6.52-1.74,3.29-2.61,7.28-1.43,10.93,1.07,3.32,3.22,6.96,6.52,8.47,14.6,6.71,29.83,11.78,45.69,14.48s32.11,3.7,48.24,2.21c8.51-.79,17.02-2.04,25.35-3.94,3.19-.73,6.35-1.55,9.43-2.64,4.01-1.41,8.05-3.05,11.69-5.27,8.2-4.99,14.51-12.43,17.32-21.68,.76-2.51,1.03-5.17,1.33-7.76,.17-1.48,.2-2.97,.1-4.45-.26-4.23-.95-8.54-2.38-12.55-2.94-8.26-7.43-15.62-13.45-22.01-5.58-5.92-12.32-10.73-18.79-15.6-1.4-1.05-2.79-2.11-4.18-3.18l2.87,2.22c-5.66-4.38-11.1-9.03-15.51-14.71l2.22,2.87c-10.86-14.17-15.03-31.96-23.99-47.21-3.02-5.14-6.63-10.04-10.71-14.4-2.44-2.6-6.51-4.15-10.03-4.15s-7.63,1.54-10.03,4.15-4.32,6.25-4.15,10.03,1.5,7.2,4.15,10.03h0Z"/></g><path d="M463.32,770.57c25.79,1.17,51.62,1.44,77.43,.8,25.81-.65,51.59-2.2,77.29-4.67,15.51-1.49,30.97-3.35,46.4-5.44,1.85-.44,3.45-1.28,4.82-2.54,1.54-1,2.76-2.33,3.65-3.98,1.78-3.04,2.53-7.52,1.43-10.93s-3.24-6.74-6.52-8.47l-3.39-1.43c-2.51-.68-5.03-.68-7.54,0-.49,.07-.98,.13-1.47,.2l3.77-.51c-25.34,3.4-50.8,5.92-76.32,7.54-25.44,1.62-50.93,2.35-76.42,2.19-14.39-.09-28.77-.47-43.15-1.12-3.53-.16-7.57,1.7-10.03,4.15s-4.31,6.49-4.15,10.03,1.37,7.47,4.15,10.03,6.13,3.98,10.03,4.15h0Z"/></g></svg>