<?xml version="1.0" encoding="UTF-8"?><svg id="Layer_2" xmlns="http://www.w3.org/2000/svg" viewBox="0 0 313.26 279.37"><defs><style>.cls-1{fill:#fff;}</style></defs><g id="Layer_1-2"><path d="M49.38,210.44c-2.52,.62-4.91,.56-7.52-.13-.67-.18-1.32-.38-1.97-.62-.15-.05-1.06-.41-.43-.14-.28-.12-.57-.25-.84-.39-1.47-.7-2.88-1.55-4.21-2.5-.12-.09-.89-.69-.39-.29-.24-.2-.48-.4-.72-.6-.59-.51-1.16-1.04-1.7-1.59-1.14-1.15-2.01-2.19-2.77-3.26-1.96-2.75-3.54-5.74-4.9-8.83-.22-.5-.26-.6-.52-1.28-.31-.79-.61-1.59-.9-2.39-.58-1.6-1.12-3.21-1.63-4.84-1.12-3.55-2.16-7.12-3.12-10.72-1.91-7.12-3.51-14.32-4.81-21.57-2.56-14.31-3.86-28.92-3.94-43.63s.72-29.3,3.5-43.31c1.28-6.44,3.16-12.17,6.93-17.5,.16-.23,.33-.45,.49-.67,.78-1.1-.55,.64,.31-.4,.39-.48,.79-.95,1.2-1.42,.91-1.03,1.86-2.01,2.86-2.94s1.95-1.73,2.97-2.54c-.6,.47-.04,.03,.07-.05,.33-.24,.67-.49,1-.73,.56-.4,1.14-.79,1.72-1.17,2.35-1.54,4.82-2.9,7.36-4.12,.58-.28,1.16-.55,1.75-.81,.22-.1,1.82-.78,1.1-.48,1.34-.55,2.68-1.07,4.04-1.56,5.43-1.96,11.02-3.45,16.65-4.7,14.17-3.15,28.59-5.39,42.94-7.48s30.04-3.92,45.15-5.28c15.49-1.39,31.03-2.36,46.57-2.91,7.68-.27,15.35-.45,23.03-.52s14.87-.22,22.28,.27c3.64,.24,6.69,.61,10.27,1.45,1.61,.38,3.2,.83,4.77,1.36,.73,.25,1.46,.53,2.18,.81,.08,.03,.79,.34,.21,.08,.42,.18,.85,.38,1.26,.58,2.79,1.32,5.44,2.91,7.94,4.72,.25,.18,.5,.37,.75,.55,1.2,.89-.31-.25,.37,.29,.54,.44,1.08,.88,1.61,1.33,1.24,1.06,2.43,2.18,3.57,3.34,4.4,4.45,7.53,8.8,10.65,14.47,3.38,6.13,5.76,12.29,7.82,19.03,4.25,13.94,6.87,28.65,8.78,42.99,2.04,15.27,3.04,30.69,3.07,46.09,0,3.44,.1,6.95-.34,10.38,.08-.63-.07,.4-.09,.54-.07,.41-.15,.82-.25,1.22-.17,.72-.37,1.44-.61,2.14-.3,.86-1.29,2.68-1.86,3.35-2.09,2.41-4.05,3.69-6.85,5.37-2.94,1.77-5.97,3.38-9.06,4.86-5.71,2.73-11.66,4.93-18.02,6.83-6.42,1.91-12.96,3.4-19.55,4.6-13.23,2.4-26.52,3.58-40.24,4.68-14.97,1.2-29.93,2.45-44.87,3.98-31.24,3.21-62.39,7.33-93.38,12.37-7.45,1.21-14.9,2.48-22.33,3.79-2.39,.42-3.74,3.35-3.14,5.54,.69,2.53,3.13,3.57,5.54,3.14,31.53-5.58,63.17-10.21,94.95-13.85,15.89-1.82,31.82-3.4,47.76-4.73,14.18-1.19,28.4-2.1,42.52-3.89,14.05-1.78,28.07-4.31,41.48-8.99,6.64-2.32,13.15-5.12,19.32-8.5,6.58-3.61,13.07-7.76,15.99-14.99,2.7-6.7,2.11-14.58,2.02-21.66-.1-7.85-.45-15.7-1.07-23.53-1.26-16.02-3.56-31.98-6.92-47.7-3.07-14.36-7.24-28.89-15.13-41.42-7.06-11.21-16.93-20.56-29.29-25.59-6.96-2.84-14.58-3.81-22.04-4.16s-15.35-.21-23.02-.12c-15.95,.2-31.89,.84-47.81,1.91-31.93,2.16-63.75,6.08-95.24,11.8-22.81,4.14-50.49,9.73-63,31.69-3.63,6.38-5.43,13.54-6.57,20.74-1.21,7.72-2.04,15.51-2.54,23.3-.97,15.18-.62,30.45,1.05,45.57,1.7,15.43,4.66,30.71,9.01,45.62,3.89,13.35,8.99,28.07,21.83,35.34,5.88,3.33,12.73,4.67,19.35,3.04,2.36-.58,3.77-3.24,3.14-5.54s-3.17-3.73-5.54-3.14h0Z"/><g><path class="cls-1" d="M158.22,274.43c-21.69,.97-45.98,1.72-68-13.74-13.49-9.48-20.57-21.14-32.14-45.1-16.93-35.04-30.71-72.98-28.92-111.86,.57-12.49,2.94-25.36,10.14-35.59,7.19-10.23,20.13-17.17,32.31-14.34,6.94,1.61,12.81,6.06,18.83,9.88,15.63,9.91,34.25,16.17,52.61,13.92,18.87-2.31,35.43-13.12,52.88-20.66,17.45-7.54,38.88-11.49,54.59-.79,13.01,8.86,18.39,25.22,21.75,40.6,2.74,12.53,9.94,37.58,7.32,74.36-2.05,28.85-3.08,43.28-10.77,56.59-24.81,42.91-88.26,45.75-110.59,46.74Z"/><path d="M158.22,269.93c-6.9,.31-13.82,.57-20.73,.36-3.59-.11-7.18-.35-10.75-.76-.4-.05-.8-.1-1.2-.15-.71-.09,.7,.11,0,0-.2-.03-.4-.06-.6-.09-.94-.14-1.87-.29-2.8-.45-1.81-.32-3.61-.7-5.4-1.13-3.58-.87-7.11-1.98-10.54-3.35-.2-.08-.39-.16-.59-.24-.68-.26,.56,.25-.11-.04-.39-.17-.79-.34-1.18-.52-.92-.42-1.84-.85-2.74-1.31-1.79-.9-3.54-1.88-5.25-2.92-1.6-.98-3.17-2.03-4.69-3.13-.41-.3-1.28-.72-1.53-1.14,0-.01,.72,.57,.34,.26-.11-.09-.23-.18-.34-.27-.26-.21-.53-.42-.79-.64-1.99-1.63-3.87-3.38-5.64-5.24-.89-.94-1.76-1.91-2.59-2.9-.41-.49-.81-.98-1.21-1.48-.1-.13-.71-.88-.29-.36s-.32-.43-.47-.62c-1.68-2.25-3.24-4.6-4.72-6.99-3.68-5.95-6.88-12.19-9.97-18.46-3.65-7.4-7.17-14.86-10.45-22.44-.4-.92-.79-1.84-1.18-2.76,.23,.55-.2-.48-.26-.63-.24-.57-.47-1.14-.71-1.71-.76-1.85-1.51-3.71-2.25-5.58-1.52-3.87-2.97-7.78-4.32-11.71-2.68-7.76-5.03-15.63-6.91-23.62-.95-4.01-1.78-8.04-2.48-12.1-.35-2.03-.66-4.06-.94-6.09,.1,.69-.05-.41-.08-.61-.07-.53-.13-1.06-.19-1.59-.12-1.06-.24-2.12-.34-3.17-.8-8.07-1.03-16.2-.55-24.29,.11-1.9,.27-3.81,.48-5.7,.05-.42,.1-.84,.15-1.27,.03-.21,.05-.42,.08-.63-.03,.19-.12,.83,.01-.07s.28-1.82,.44-2.72c.67-3.73,1.6-7.43,2.9-10.99,.17-.46,.34-.92,.52-1.37,.09-.22,.47-1.15,.18-.47,.39-.9,.8-1.78,1.23-2.65,.84-1.68,1.79-3.32,2.83-4.89,.23-.34,.46-.69,.7-1.02,.13-.18,.9-1.19,.32-.46,.55-.7,1.13-1.38,1.72-2.04,1.12-1.23,2.32-2.38,3.59-3.45,.2-.16,.39-.33,.59-.49,.05-.04,.55-.44,.15-.12-.35,.28,.48-.35,.62-.45,.72-.52,1.47-1.01,2.23-1.48,.7-.43,1.42-.84,2.15-1.22,.34-.17,.68-.34,1.02-.51,.24-.11,1.53-.66,.65-.31,1.57-.62,3.17-1.15,4.82-1.53,.36-.08,.73-.16,1.09-.23s1.39-.21,.46-.1c.86-.1,1.72-.17,2.59-.2,.74-.02,1.49,0,2.23,.04,.44,.03,.87,.08,1.3,.11,.53,.04-.22-.03-.27-.04,.25,.05,.49,.08,.74,.12,1.84,.34,3.61,.92,5.35,1.59,.48,.19-.02,0-.1-.04,.26,.12,.52,.23,.77,.35,.38,.18,.77,.37,1.15,.56,.89,.45,1.76,.93,2.62,1.43,1.67,.97,3.3,2.02,4.93,3.07,6.78,4.42,13.67,8.36,21.18,11.44,15.01,6.14,31.5,8.04,47.33,4.07s29.12-12.16,43.48-18.59c.85-.38,1.7-.75,2.56-1.12-.71,.31,.13-.05,.39-.16,.49-.2,.99-.4,1.48-.6,1.69-.66,3.4-1.29,5.12-1.86,3.4-1.13,6.86-2.08,10.38-2.78,.86-.17,1.72-.33,2.58-.47,.46-.08,.93-.15,1.39-.21,.07-.01,.73-.09,.2-.03s.3-.03,.4-.04c1.78-.21,3.56-.34,5.35-.39s3.53-.02,5.28,.11c.84,.06,1.67,.15,2.51,.25-.81-.09-.02,0,.33,.06,.51,.08,1.01,.17,1.52,.27,1.63,.32,3.24,.74,4.82,1.26,.79,.26,1.56,.56,2.34,.86,.48,.18-.13-.05-.19-.08,.23,.11,.47,.21,.7,.32,.41,.19,.81,.39,1.22,.59,1.56,.79,3.06,1.7,4.48,2.71,.3,.22,.6,.44,.9,.66-.78-.59,.21,.19,.39,.34,.66,.55,1.3,1.12,1.92,1.72,1.19,1.14,2.3,2.36,3.34,3.64,.21,.26,.66,.87,.2,.24,.22,.3,.44,.59,.65,.89,.5,.7,.98,1.41,1.45,2.13,.9,1.41,1.73,2.86,2.5,4.35,.37,.72,.73,1.45,1.08,2.18,.19,.4,.37,.8,.55,1.2,.12,.28,.55,1.29,.22,.49,4.07,9.8,6.13,20.36,8.4,30.7,1.11,5.05,2.09,10.13,2.88,15.23,.11,.71,.22,1.42,.32,2.13,.05,.33,.1,.67,.14,1,.02,.17,.05,.34,.07,.51,.12,.88-.07-.58,0,0,.19,1.53,.39,3.06,.55,4.6,.37,3.43,.66,6.87,.87,10.32,.93,15.75-.23,31.49-1.63,47.18-.28,3.12-.59,6.23-.98,9.33-.05,.38-.1,.76-.15,1.14-.11,.89,.11-.8-.01,.08-.1,.72-.21,1.45-.32,2.17-.21,1.33-.43,2.65-.68,3.97-.46,2.4-1.01,4.78-1.68,7.13-.32,1.13-.68,2.25-1.07,3.36-.18,.52-.37,1.05-.57,1.56-.11,.28-.21,.55-.33,.83-.23,.58-.32,.68,.02-.02-2.23,4.69-4.73,9-7.81,13.2-.3,.41,.22-.28,.22-.29-.11,.17-.26,.33-.39,.49-.19,.24-.39,.49-.59,.73-.46,.56-.93,1.12-1.41,1.67-.91,1.05-1.86,2.08-2.83,3.07-1.93,1.98-3.97,3.84-6.11,5.6-.47,.39-.95,.77-1.43,1.15-.88,.7,.47-.34-.18,.14-.29,.21-.57,.43-.85,.64-1.1,.82-2.23,1.6-3.37,2.37-2.28,1.52-4.62,2.94-7.02,4.26s-4.75,2.49-7.19,3.6c-.6,.27-1.2,.54-1.8,.8-.19,.08-1.19,.52-.58,.25s-.4,.17-.58,.24c-1.26,.52-2.52,1.01-3.79,1.49-9.76,3.65-19.92,6.13-30.19,7.85-1.16,.19-2.32,.38-3.48,.55-.57,.09-1.14,.17-1.71,.25-.3,.04-.61,.09-.91,.13-.13,.02-.26,.04-.39,.05-.59,.08,1-.13,.42-.06-2.25,.29-4.5,.56-6.75,.8-3.96,.41-7.92,.73-11.89,.98-3.02,.19-6.04,.33-9.06,.47-2.35,.11-4.61,1.99-4.5,4.5,.11,2.35,1.98,4.61,4.5,4.5,7.32-.33,14.63-.76,21.92-1.55,10.23-1.11,20.42-2.77,30.37-5.38,10.91-2.86,21.65-6.86,31.47-12.45,10.28-5.85,19.37-13.55,26.42-23.07,6.28-8.47,10.1-18.12,11.97-28.46,1.15-6.35,1.81-12.79,2.37-19.22,.7-8.05,1.37-16.13,1.71-24.21,.62-14.74-.31-29.49-2.65-44.06-1.49-9.27-3.64-18.43-5.78-27.57-3.16-13.55-8.15-28-18.95-37.41-5.66-4.93-12.55-8.27-19.95-9.59s-15.51-.96-23.19,.53c-15.5,3.02-29.27,10.92-43.42,17.55-1.78,.83-3.57,1.65-5.37,2.43-.27,.12-.53,.23-.8,.34-.02,0-.68,.29-.26,.11s-.24,.1-.26,.11c-.27,.11-.54,.22-.8,.33-.94,.38-1.88,.75-2.82,1.11-3.7,1.4-7.47,2.61-11.33,3.5-1.9,.44-3.81,.79-5.73,1.08,.09-.01,.65-.08,.12-.02-.29,.03-.58,.07-.87,.1-.43,.05-.87,.09-1.3,.13-1.08,.1-2.17,.17-3.26,.21-1.95,.07-3.91,.05-5.86-.05-.94-.05-1.88-.12-2.81-.21-.5-.05-1.01-.1-1.51-.16-.22-.03-.43-.05-.65-.08,.48,.06,.25,.04-.09-.01-3.96-.58-7.86-1.47-11.68-2.64-1.89-.58-3.75-1.22-5.6-1.92-.48-.18-.96-.37-1.43-.56-.18-.07-1.45-.59-.75-.3-.95-.4-1.88-.82-2.81-1.25-3.65-1.69-7.2-3.61-10.63-5.72s-6.59-4.35-10-6.36-7.25-3.86-11.21-4.78-7.86-.94-11.84-.35c-7.37,1.09-14.27,4.96-19.69,9.97-11.89,10.99-15.67,27.84-16.54,43.39-.94,16.87,1.13,33.88,5.04,50.28,3.96,16.63,9.91,32.7,16.72,48.35,3.38,7.76,7,15.42,10.77,23,3.09,6.21,6.29,12.38,10,18.25,3.1,4.91,6.6,9.64,10.66,13.8,4.38,4.48,9.47,8.35,14.85,11.53,13.63,8.06,29.26,11.17,44.94,11.62,6.85,.2,13.69-.06,20.53-.37,2.35-.1,4.61-1.99,4.5-4.5-.11-2.35-1.98-4.61-4.5-4.5Z"/></g><path d="M62.9,145.79c.05-.25,.11-.49,.19-.74,.05-.15,.12-.3,.15-.45,.12-.49-.52,.96-.23,.55,.14-.2,.23-.47,.36-.68,.11-.19,.8-1.12,.25-.44s.11-.12,.23-.25c.21-.23,.43-.46,.66-.67,.21-.2,.44-.38,.65-.58,.45-.42-.21,.41-.38,.29,0,0,.53-.39,.56-.41,1.17-.82,2.44-1.5,3.73-2.09,.17-.08,.33-.15,.5-.22,.7-.32-.23,.12-.31,.13,.32-.02,.76-.31,1.06-.42,.84-.32,1.69-.61,2.54-.89,3.75-1.2,7.61-2.04,11.49-2.74,2.07-.37,4.14-.7,6.22-1,.5-.07,1-.14,1.5-.21-1.08,.15,.61-.08,.88-.11,1.08-.14,2.15-.27,3.23-.39,8.95-1.05,18.08-2.26,27.1-2.08,1.75,.04,3.49,.16,5.23,.35,.79,.09-1.09-.17,.1,.02,.33,.05,.66,.11,.99,.16,.69,.13,1.38,.27,2.07,.44,1.18,.29,2.35,.65,3.5,1.06,.55,.2,1.09,.4,1.63,.62,.25,.1,.5,.21,.76,.31,.57,.23-1.38-.63-.27-.11,.28,.13,.55,.25,.83,.38,.94,.45,1.85,.96,2.73,1.52,.42,.26,.83,.54,1.23,.83,.2,.14,.4,.29,.6,.44-.83-.61,.14,.13,.25,.22,.75,.63,1.47,1.31,2.15,2.02,.34,.35,.67,.72,.98,1.09,.16,.19,.31,.38,.47,.56-.67-.79,.08,.13,.17,.25,.56,.79,1.06,1.61,1.52,2.46,.14,.26,.27,.53,.4,.8,.06,.13,.38,.83,.14,.28s.05,.15,.11,.29c.1,.28,.2,.56,.29,.84,.16,.51,.3,1.02,.42,1.54,.05,.23,.1,.46,.15,.69,.03,.15,.16,.91,.06,.28s0,.13,.02,.28c.03,.3,.04,.59,.05,.89,.02,.54,0,1.08-.03,1.62-.02,.24-.05,.48-.06,.73-.05,.72,.25-1.06-.02,.07-.11,.47-.2,.95-.33,1.42s-.28,.93-.44,1.39c-.08,.23-.17,.45-.26,.68,.4-1-.08,.11-.15,.25-.43,.87-.94,1.72-1.49,2.52-.14,.2-.29,.4-.43,.6,.49-.72,.16-.19,.02-.04-.4,.47-.8,.94-1.23,1.39-.73,.77-1.54,1.43-2.32,2.15-.49,.45,.57-.4,.03-.01-.2,.15-.4,.3-.6,.44-.51,.36-1.02,.7-1.55,1.02-.92,.56-1.87,1.06-2.84,1.51-.16,.08-1.03,.45-.34,.17-.27,.11-.55,.22-.82,.32-.62,.24-1.25,.45-1.88,.65-2.47,.79-5.01,1.31-7.57,1.72-.13,.02-.88,.12-.13,.02-.3,.04-.59,.07-.89,.11-.59,.07-1.18,.13-1.78,.19-1.33,.12-2.67,.22-4,.29-.86,.05-1.73,.07-2.59,.08-5.51,.09-11.04-.2-16.52-.82-.42-.05-.84-.1-1.26-.15-.47-.06-1.43-.11-.41-.05-.98-.06-1.99-.29-2.96-.45-1.93-.32-3.86-.69-5.77-1.11-4.09-.91-8.13-2.08-12.03-3.61-.45-.18-.9-.36-1.34-.54,.96,.39-.33-.15-.59-.27-.99-.45-1.96-.92-2.92-1.42-.9-.47-1.79-.97-2.67-1.49-.36-.21-.71-.43-1.06-.66-.18-.12-.35-.23-.53-.35-.1-.07-.98-.74-.56-.39s-.22-.19-.31-.28c-.22-.19-.43-.38-.64-.58-.46-.43-.9-.89-1.31-1.36-.19-.22-.99-1.31-.49-.57-.33-.48-.67-.94-.98-1.43-.58-.92-1.11-1.88-1.57-2.87-.11-.23-.21-.46-.31-.69,.35,.83,.09,.21,.03,.03-.2-.58-.41-1.15-.57-1.73-.13-.45-.24-.91-.34-1.36-.02-.09-.15-.54-.12-.67-.13,.57,.06,.69,.03,.22s-.07-.93-.06-1.4c0-.2,.04-.4,.03-.59-.03-.65-.2,1.15-.03,.21,.42-2.31-.63-4.96-3.14-5.54-2.2-.5-5.08,.67-5.54,3.14-.93,5.08,.62,10.22,3.12,14.65s6.33,8.07,10.88,10.63c7.91,4.46,16.81,7.08,25.71,8.6,12.23,2.09,25.03,2.8,37.32,.68,10.24-1.77,20.88-7.11,25.39-17.02,2.22-4.88,2.85-10.23,1.38-15.44-1.35-4.79-4.26-9.17-7.92-12.51-5.32-4.86-12.37-7.93-19.49-8.97-9.17-1.34-18.42-.22-27.58,.71s-18.79,1.97-27.92,4.22c-6.92,1.7-14.92,4.24-19.15,10.41-.82,1.2-1.44,2.62-1.74,4.04-.49,2.3,.68,4.97,3.14,5.54,2.27,.52,5.01-.68,5.54-3.14Z"/><path d="M231.77,120.19c-6.79-1.58-13.76-1.41-20.51,.33-2.07,.53-4.08,1.22-6.1,1.93-2.99,1.05-6.03,2.14-8.8,3.7-5.92,3.32-10.17,8.93-11.67,15.57-.76,3.39-1,6.95-.77,10.42,.25,3.8,1.11,7.59,3.77,10.47,2.52,2.72,6.3,4.03,9.75,5.13s7,1.78,10.6,2.22c7.05,.86,14.34,.28,21.19-1.58,3.28-.89,6.43-2.15,9.53-3.52,2.83-1.25,5.46-2.81,7.79-4.86,3.65-3.21,6.09-7.83,7.1-12.56,1.6-7.53-.43-15.54-6.53-20.52-4.46-3.63-9.84-5.4-15.36-6.72-2.29-.55-4.98,.72-5.54,3.14s.69,4.95,3.14,5.54c1.77,.42,3.53,.86,5.26,1.42,.46,.15,.92,.31,1.38,.48,.28,.1,.56,.21,.84,.32,.77,.3-.18-.11-.24-.1,.39,0,1.03,.47,1.38,.65,.55,.28,1.1,.58,1.63,.9,.45,.27,.87,.57,1.3,.87,.89,.6-.71-.65,.09,.07,.16,.14,.32,.27,.48,.42,.4,.36,.78,.73,1.14,1.13,.22,.24,.42,.49,.63,.74-.74-.85-.05-.04,.08,.15,.31,.47,.6,.96,.86,1.46,.06,.11,.49,1.16,.17,.31,.11,.29,.22,.58,.31,.87,.23,.71,.4,1.43,.52,2.16-.17-.96,.02,.39,.03,.49,.02,.41,.03,.82,.03,1.23,0,.66-.06,1.31-.13,1.97,.12-1.1-.15,.68-.22,.98-.26,1.12-.62,2.19-1.02,3.27-.33,.89,.46-.96,.08-.18-.06,.13-.12,.25-.17,.38-.12,.25-.24,.49-.37,.74-.43,.81-.93,1.59-1.49,2.32,.62-.82-.51,.53-.71,.74-.41,.42-.85,.81-1.29,1.2-.87,.77,.77-.51-.18,.16-.19,.13-.38,.27-.57,.4-.57,.39-1.17,.76-1.78,1.1-1.03,.58-2.1,1.09-3.18,1.57-.15,.07-1.28,.54-.26,.12-.23,.09-.45,.19-.68,.28-.75,.31-1.5,.61-2.26,.89-2.88,1.06-5.86,1.85-8.88,2.37-.36,.06-.72,.11-1.08,.17-.82,.15,1.06-.11-.32,.05-.73,.08-1.45,.16-2.18,.22-1.6,.13-3.21,.18-4.82,.16-1.46-.02-2.92-.1-4.38-.24-.36-.04-.73-.09-1.09-.12-.83-.07,1.05,.17-.32-.04-.87-.13-1.73-.28-2.59-.45-3-.6-5.94-1.48-8.79-2.6,.73,.29,.07,.03-.06-.04-.37-.18-.74-.36-1.1-.56-.24-.14-.46-.28-.7-.43-1.04-.65,.51,.54-.36-.32-.6-.6-.19-.14-.06,.03-.23-.3-.4-.63-.6-.96-.42-.69-.09-.15-.01,.05-.18-.48-.33-.96-.45-1.46-.06-.25-.1-.5-.16-.75-.3-1.22,.05,.92-.06-.34-.06-.65-.11-1.3-.13-1.95-.06-1.52-.04-3.04,.1-4.56,.02-.28,.06-.55,.08-.83-.1,1.03,.05-.32,.07-.44,.12-.68,.26-1.35,.44-2.01s.39-1.31,.61-1.95c.27-.81,.08-.24,0-.06,.21-.5,.46-.99,.72-1.47,.33-.6,.71-1.16,1.08-1.73,.09-.14,.53-.68,0-.03,.24-.3,.49-.59,.74-.87,.41-.46,.85-.89,1.31-1.3,.18-.16,.37-.31,.55-.47,.39-.32,.37-.3-.07,.04,.19-.14,.38-.28,.58-.41,1.07-.74,2.21-1.37,3.39-1.94,.32-.16,.65-.3,.98-.45,1.1-.5-.88,.33,.26-.11,.69-.27,1.37-.53,2.06-.79,2.15-.79,4.32-1.56,6.52-2.19,1.2-.35,2.41-.65,3.63-.89,.71-.14,1.42-.26,2.14-.37-1.13,.18,.14-.01,.31-.03,.39-.04,.78-.08,1.17-.11,1.67-.13,3.36-.14,5.03-.03,.3,.02,.59,.04,.89,.07,.3,.03,.6,.06,.9,.09-.44-.07-.38-.06,.18,.02,.95,.15,1.89,.34,2.82,.56,2.29,.53,4.98-.71,5.54-3.14,.52-2.3-.69-4.97-3.14-5.54Z"/><g><path d="M223.46,128.41c-.66,.06-4.21,.45-6.73,3.32-2.54,2.9-2.43,6.51-2.34,9.76,.06,1.9,.18,3.12,.87,4.57,1.09,2.29,3.54,3.7,6.03,4.21,4.22,.86,9.67-.61,12.4-5.16,1.98-3.3,2.28-7.79,.01-11.49-2.2-3.6-6.29-5.56-10.25-5.2Z"/><path d="M223.46,123.91c-5.94,.56-11.23,4.15-12.93,10.08-.82,2.83-.81,6.05-.55,8.97,.34,3.86,1.85,7.05,5,9.38,4.79,3.54,11.73,3.32,16.82,.59,6.06-3.25,8.88-10.25,7.66-16.86-1.35-7.29-8.66-12.72-15.99-12.16-2.34,.18-4.61,1.94-4.5,4.5,.1,2.29,1.99,4.69,4.5,4.5,.53-.04,1.04-.02,1.56-.02,.89,0-.25-.07-.26-.06,.16-.06,.59,.11,.77,.14,.46,.1,.9,.26,1.36,.4,.98,.3-.62-.35-.06-.02,.32,.18,.66,.34,.97,.53,.18,.11,.36,.23,.53,.35,.72,.47-.09-.11-.15-.12,.36,.09,.91,.86,1.16,1.12,.56,.56,0-.06-.08-.15,.18,.19,.33,.46,.47,.68,.16,.26,.3,.52,.45,.78,.57,.96-.22-.8,.13,.25,.19,.56,.33,1.12,.46,1.7,.17,.73-.09-.16-.02-.16,.01,0,.04,.6,.04,.69,0,.29,0,.57-.01,.86v.17c-.06,.51-.04,.45,.04-.18-.18,.11-.31,1.41-.38,1.64s-.27,1.28-.02,.18c-.04,.18-.21,.45-.29,.6-.19,.37-.51,1.17-.85,1.38,.05-.03,.69-.79,.12-.18-.14,.15-.27,.3-.42,.45-.18,.18-.36,.35-.55,.52-.85,.75,.6-.32-.16,.12-.34,.2-.66,.43-1.01,.61-.05,.03-.77,.41-.79,.39-.03-.04,1.09-.38,.26-.13-.46,.14-.92,.3-1.39,.41-.19,.04-.38,.07-.56,.12-.97,.22,1.06-.06,.07,0-.47,.03-.93,.06-1.4,.05-.33,0-.77-.14-1.09-.07l.66,.09c-.17-.03-.35-.06-.52-.09-.21-.04-.42-.09-.62-.15s-.41-.12-.61-.18c-.2-.07-.4-.14-.6-.22,.53,.23,.65,.27,.34,.12-.16-.1-1.04-.75-1.23-.74,.37-.03,.62,.54,.06,0-.13-.12-.51-.4-.53-.57,0,0,.57,.93,.16,.15-.02-.03-.32-.47-.3-.56l.19,.46c-.08-.2-.14-.4-.2-.6-.05-.16-.29-.81-.21-.91,0,0,.09,1.19,.04,.23-.02-.3-.04-.6-.06-.9-.02-.51-.04-1.03-.05-1.54-.01-.54-.02-1.08,0-1.62,0-.42,.24-1.24,.1-1.63l-.08,.55c.02-.16,.05-.32,.09-.48,.06-.32,.14-.64,.23-.96,.06-.22,.12-.61,.26-.79-.22,.51-.26,.61-.12,.3,.07-.15,.15-.31,.24-.45,.12-.2,.25-.39,.37-.59-.52,.87,.12-.13,.32-.33,.15-.15,.42-.52,.62-.58l-.4,.3c.17-.12,.34-.24,.52-.35,.31-.19,1.12-.41,1.3-.69-.27,.41-.89,.31-.21,.11,.27-.08,.53-.17,.79-.24,.31-.08,.63-.14,.95-.21,.99-.22-1.28,.14-.39,.05,2.34-.22,4.62-1.91,4.5-4.5-.1-2.25-1.99-4.74-4.5-4.5Z"/></g><g><path d="M126.99,136.5c-3.99-3.64-10.35-4.12-15.15-1.82-5.56,2.66-7.26,8.18-7.56,9.54-.24,1.08-.31,2.24,.09,3.28,.37,.97,1.13,1.74,1.94,2.38,4.06,3.2,9.63,3.55,14.8,3.5,2.31-.03,4.78-.16,6.62-1.57,2.84-2.17,3.26-6.32,2.74-9.15-.6-3.26-2.61-5.35-3.48-6.16Z"/><path d="M130.18,133.32c-5.6-4.95-13.56-5.76-20.28-2.68-4.78,2.19-8.4,6.81-9.81,11.83-1.07,3.78-.27,7.7,2.75,10.35,2.65,2.33,6.01,3.78,9.47,4.41s6.93,.81,10.37,.6c4.16-.24,7.92-1.62,10.33-5.21,4-5.95,2.24-14.6-2.83-19.3-1.73-1.6-4.68-1.84-6.36,0-1.6,1.74-1.84,4.65,0,6.36,.24,.23,.48,.46,.71,.7,.12,.13,.22,.26,.34,.38,.54,.6-.16-.23-.17-.23,.3,.09,.71,1.12,.88,1.41,.4,.69,.08,.11,.01-.06,.15,.37,.27,.75,.38,1.14,.09,.32,.13,.65,.21,.96,.15,.61-.06-1.18-.03-.18,0,.41,.05,.83,.04,1.24,0,.25-.07,.55-.04,.8,.07,.61,.25-1.06,0-.06-.1,.4-.13,1.32-.44,1.59l.2-.46c-.07,.15-.14,.3-.22,.44-.15,.23-.29,.47-.43,.71,.09-.15,.63-.67,.07-.13-.16,.16-.32,.32-.49,.47,.71-.63,.04-.13-.16,.03-.46,.36,.88-.19-.14,.06-.25,.06-.49,.14-.74,.2-.37,.09-1.13,.14-.33,.08-2.51,.2-5.07,.17-7.57-.06,.02,0-1.29-.15-.6-.06s-.61-.11-.59-.1c-.52-.09-1.04-.2-1.55-.34-.64-.16-1.25-.37-1.87-.59-.2-.07-.72-.38,0,0-.35-.18-.7-.34-1.04-.54-.28-.16-.56-.33-.83-.52-.2-.13-.82-.69-.19-.12-.19-.18-.38-.35-.57-.53-.78-.76,0,0-.02,0l-.19-.34c.13,.15,.19,.33,.18,.52,.22,.41,0-.45,0-.64-.02,.73,.01-.03,.09-.35,.12-.47,.3-.92,.45-1.39,.24-.75-.43,.9-.17,.38,.09-.17,.16-.36,.25-.53,.19-.39,.39-.76,.61-1.13s.46-.71,.69-1.07c.39-.58-.04-.36-.07,.08,0-.08,.33-.39,.41-.47,.37-.41,.77-.76,1.16-1.15,.15-.15,.66-.49-.11,.06,.29-.21,.58-.41,.88-.6,.53-.33,1.08-.62,1.64-.87-.88,.4-.12,.07,.12-.01,.41-.14,.82-.26,1.23-.36,.24-.06,.48-.1,.72-.16,1.17-.26-.93,.04,.27-.05,.62-.04,1.23-.07,1.85-.05,.31,0,.61,.05,.92,.06,.34,.03,.25,.02-.28-.05,.18,.03,.36,.06,.54,.1,.66,.13,1.3,.33,1.94,.53,.79,.25,.1,.03-.06-.04,.33,.16,.66,.32,.97,.5,.26,.15,.51,.34,.77,.48,.26,.19,.21,.13-.17-.16,.19,.15,.38,.31,.56,.48,1.76,1.56,4.65,1.87,6.36,0,1.57-1.7,1.88-4.7,0-6.36Z"/></g><path d="M170.18,170.37c.26,.28,.5,.56,.75,.85,.8,.91-.45-.74,.21,.28,.34,.53,.7,1.04,1.01,1.58,.71,1.2,1.32,2.45,1.89,3.71,1.16,2.55,2.15,5.18,3.45,7.66,1.44,2.75,3.32,5.3,5.64,7.37,1.27,1.13,2.63,2.15,3.98,3.18,.28,.21,.55,.42,.83,.63,.05,.04,1.15,.88,.41,.31,.66,.51,1.3,1.03,1.93,1.58,.51,.45,1.01,.91,1.47,1.4,.26,.27,.5,.56,.75,.85-.55-.63-.12-.16-.02,0,.41,.65,.79,1.29,1.16,1.97,.11,.2,.25,.77,0-.04,.15,.47,.33,.93,.44,1.42,.01,.05,.16,1.2,.11,.48s0,.44,0,.47v.35c-.05,.52-.03,.47,.04-.15,.04,.03-.15,.59-.16,.69-.17,.98,.47-.6-.09,.25-.11,.17-.81,1.07-.11,.28-.16,.18-.31,.35-.48,.52-.17,.16-.34,.32-.53,.47,.44-.34,.46-.37,.05-.08-.53,.3-1.04,.6-1.59,.86,.98-.46-.13,.03-.3,.08-.23,.08-.47,.16-.7,.23-1.56,.48-3.18,.81-4.79,1.09-.29,.05-.58,.1-.87,.14-.07,.01-1.5,.2-.54,.08-.73,.09-1.46,.17-2.19,.23-1.68,.14-3.37,.2-5.05,.18-1.83-.02-3.66-.13-5.48-.34-.29-.03-.58-.07-.87-.11,.9,.12-.82-.14-.98-.16-.87-.15-1.73-.32-2.59-.51-1.72-.38-3.42-.84-5.09-1.39-.84-.27-1.67-.57-2.49-.88-.41-.16-.82-.32-1.23-.49,.74,.31-.8-.36-.94-.42-2.14-.97-4.94-.68-6.16,1.61-1.04,1.98-.67,5.11,1.61,6.16,6.98,3.18,14.34,5.05,22.01,5.45,3.86,.2,7.68-.06,11.5-.61,3.44-.49,6.86-1.22,10-2.74s5.99-4.58,6.72-8.2-.23-7.61-2.23-10.81-4.88-5.49-7.86-7.75c-.55-.42-1.11-.83-1.66-1.26,.74,.57-.34-.28-.4-.32-.32-.26-.64-.53-.95-.8-.62-.54-1.23-1.11-1.79-1.71-.28-.29-.53-.6-.8-.91-.32-.4-.32-.39,.01,.02-.15-.2-.29-.41-.43-.62-1.92-2.85-3.15-6.08-4.52-9.21-1.48-3.38-3.21-6.56-5.73-9.29-1.6-1.73-4.76-1.74-6.36,0-1.7,1.86-1.71,4.51,0,6.36h0Z"/><path d="M143.84,244.93c16.42,.74,32.88,.33,49.23-1.24,4.88-.47,9.74-1.06,14.59-1.71,2.34-.32,3.82-3.44,3.14-5.54-.83-2.58-3.03-3.48-5.54-3.14,.39-.05,.3-.04-.26,.03-.32,.04-.65,.08-.97,.13-.65,.08-1.3,.16-1.95,.24-1.3,.16-2.6,.31-3.9,.46-2.6,.29-5.2,.55-7.81,.78-5.13,.45-10.27,.79-15.41,1.02-10.37,.46-20.76,.44-31.13-.03-2.35-.11-4.61,2.15-4.5,4.5,.11,2.53,1.98,4.39,4.5,4.5h0Z"/></g></svg>